<mxfile host="Electron" modified="2024-03-01T22:45:43.456Z" agent="Mozilla/5.0 (Macintosh; Intel Mac OS X 10_15_7) AppleWebKit/537.36 (KHTML, like Gecko) draw.io/23.1.5 Chrome/120.0.6099.109 Electron/28.1.0 Safari/537.36" etag="NTtGhkbvUCxlaZiLSyH1" version="23.1.5" type="device" pages="2">
  <diagram name="Network Logs Analysis" id="Eva0nNb-OymbYaM0o4y6">
    <mxGraphModel dx="1026" dy="1779" grid="1" gridSize="10" guides="1" tooltips="1" connect="1" arrows="1" fold="1" page="1" pageScale="1" pageWidth="850" pageHeight="1100" math="0" shadow="0">
      <root>
        <mxCell id="0" />
        <mxCell id="1" parent="0" />
        <mxCell id="2g5OPuSMzfDAiV49BnSi-8" style="edgeStyle=orthogonalEdgeStyle;rounded=0;orthogonalLoop=1;jettySize=auto;html=1;" parent="1" source="2g5OPuSMzfDAiV49BnSi-1" target="2g5OPuSMzfDAiV49BnSi-7" edge="1">
          <mxGeometry relative="1" as="geometry" />
        </mxCell>
        <mxCell id="2g5OPuSMzfDAiV49BnSi-1" value="Event Trigger" style="rounded=0;whiteSpace=wrap;html=1;" parent="1" vertex="1">
          <mxGeometry x="80" y="-1070" width="120" height="60" as="geometry" />
        </mxCell>
        <mxCell id="2g5OPuSMzfDAiV49BnSi-4" value="&lt;ul style=&quot;list-style-type: disc; font-size: 16px;&quot;&gt;&lt;font style=&quot;font-size: 16px;&quot;&gt;&lt;br&gt;&lt;/font&gt;&lt;li style=&quot;margin: 0px; font-style: normal; font-variant-caps: normal; font-weight: normal; font-stretch: normal; line-height: normal; font-family: &amp;quot;Helvetica Neue&amp;quot;; font-size-adjust: none; font-kerning: auto; font-variant-alternates: normal; font-variant-ligatures: normal; font-variant-numeric: normal; font-variant-east-asian: normal; font-variant-position: normal; font-feature-settings: normal; font-optical-sizing: auto; font-variation-settings: normal;&quot;&gt;&lt;font style=&quot;font-size: 16px;&quot;&gt;&lt;span style=&quot;font-style: normal; font-variant-caps: normal; font-weight: normal; font-stretch: normal; line-height: normal; font-family: Menlo; font-size-adjust: none; font-kerning: auto; font-variant-alternates: normal; font-variant-ligatures: normal; font-variant-numeric: normal; font-variant-east-asian: normal; font-variant-position: normal; font-variant-emoji: normal; font-feature-settings: normal; font-optical-sizing: auto; font-variation-settings: normal;&quot;&gt;&lt;/span&gt;&lt;b&gt;Event Trigger:&lt;/b&gt;&lt;/font&gt;&lt;/li&gt;&lt;font style=&quot;font-size: 16px;&quot;&gt;&lt;br&gt;&lt;/font&gt;&lt;ul style=&quot;list-style-type: disc;&quot;&gt;&lt;font style=&quot;font-size: 16px;&quot;&gt;&lt;br&gt;&lt;/font&gt;&lt;li style=&quot;margin: 0px; font-style: normal; font-variant-caps: normal; font-weight: normal; font-stretch: normal; line-height: normal; font-family: &amp;quot;Helvetica Neue&amp;quot;; font-size-adjust: none; font-kerning: auto; font-variant-alternates: normal; font-variant-ligatures: normal; font-variant-numeric: normal; font-variant-east-asian: normal; font-variant-position: normal; font-variant-emoji: normal; font-feature-settings: normal; font-optical-sizing: auto; font-variation-settings: normal;&quot;&gt;&lt;font style=&quot;font-size: 16px;&quot;&gt;&lt;span style=&quot;font-style: normal; font-variant-caps: normal; font-weight: normal; font-stretch: normal; line-height: normal; font-family: Menlo; font-size-adjust: none; font-kerning: auto; font-variant-alternates: normal; font-variant-ligatures: normal; font-variant-numeric: normal; font-variant-east-asian: normal; font-variant-position: normal; font-variant-emoji: normal; font-feature-settings: normal; font-optical-sizing: auto; font-variation-settings: normal;&quot;&gt;&lt;/span&gt;User devices connect/disconnect from the access point.&lt;/font&gt;&lt;/li&gt;&lt;font style=&quot;font-size: 16px;&quot;&gt;&lt;br&gt;&lt;/font&gt;&lt;li style=&quot;margin: 0px; font-style: normal; font-variant-caps: normal; font-weight: normal; font-stretch: normal; line-height: normal; font-family: &amp;quot;Helvetica Neue&amp;quot;; font-size-adjust: none; font-kerning: auto; font-variant-alternates: normal; font-variant-ligatures: normal; font-variant-numeric: normal; font-variant-east-asian: normal; font-variant-position: normal; font-variant-emoji: normal; font-feature-settings: normal; font-optical-sizing: auto; font-variation-settings: normal;&quot;&gt;&lt;font style=&quot;font-size: 16px;&quot;&gt;&lt;span style=&quot;font-style: normal; font-variant-caps: normal; font-weight: normal; font-stretch: normal; line-height: normal; font-family: Menlo; font-size-adjust: none; font-kerning: auto; font-variant-alternates: normal; font-variant-ligatures: normal; font-variant-numeric: normal; font-variant-east-asian: normal; font-variant-position: normal; font-variant-emoji: normal; font-feature-settings: normal; font-optical-sizing: auto; font-variation-settings: normal;&quot;&gt;&lt;/span&gt;Configuration changes on the access point.&lt;/font&gt;&lt;/li&gt;&lt;font style=&quot;font-size: 16px;&quot;&gt;&lt;br&gt;&lt;/font&gt;&lt;li style=&quot;margin: 0px; font-style: normal; font-variant-caps: normal; font-weight: normal; font-stretch: normal; line-height: normal; font-family: &amp;quot;Helvetica Neue&amp;quot;; font-size-adjust: none; font-kerning: auto; font-variant-alternates: normal; font-variant-ligatures: normal; font-variant-numeric: normal; font-variant-east-asian: normal; font-variant-position: normal; font-variant-emoji: normal; font-feature-settings: normal; font-optical-sizing: auto; font-variation-settings: normal;&quot;&gt;&lt;font style=&quot;font-size: 16px;&quot;&gt;&lt;span style=&quot;font-style: normal; font-variant-caps: normal; font-weight: normal; font-stretch: normal; line-height: normal; font-family: Menlo; font-size-adjust: none; font-kerning: auto; font-variant-alternates: normal; font-variant-ligatures: normal; font-variant-numeric: normal; font-variant-east-asian: normal; font-variant-position: normal; font-variant-emoji: normal; font-feature-settings: normal; font-optical-sizing: auto; font-variation-settings: normal;&quot;&gt;&lt;/span&gt;Security-related events, such as failed authentication attempts.&lt;/font&gt;&lt;/li&gt;&lt;font style=&quot;font-size: 16px;&quot;&gt;&lt;br&gt;&lt;/font&gt;&lt;/ul&gt;&lt;font style=&quot;font-size: 16px;&quot;&gt;&lt;br&gt;&lt;/font&gt;&lt;li style=&quot;margin: 0px; font-style: normal; font-variant-caps: normal; font-weight: normal; font-stretch: normal; line-height: normal; font-family: &amp;quot;Helvetica Neue&amp;quot;; font-size-adjust: none; font-kerning: auto; font-variant-alternates: normal; font-variant-ligatures: normal; font-variant-numeric: normal; font-variant-east-asian: normal; font-variant-position: normal; font-feature-settings: normal; font-optical-sizing: auto; font-variation-settings: normal;&quot;&gt;&lt;font style=&quot;font-size: 16px;&quot;&gt;&lt;span style=&quot;font-style: normal; font-variant-caps: normal; font-weight: normal; font-stretch: normal; line-height: normal; font-family: Menlo; font-size-adjust: none; font-kerning: auto; font-variant-alternates: normal; font-variant-ligatures: normal; font-variant-numeric: normal; font-variant-east-asian: normal; font-variant-position: normal; font-variant-emoji: normal; font-feature-settings: normal; font-optical-sizing: auto; font-variation-settings: normal;&quot;&gt;&lt;/span&gt;&lt;b&gt;Log Collection:&lt;/b&gt;&lt;/font&gt;&lt;/li&gt;&lt;font style=&quot;font-size: 16px;&quot;&gt;&lt;br&gt;&lt;/font&gt;&lt;ul style=&quot;list-style-type: disc;&quot;&gt;&lt;font style=&quot;font-size: 16px;&quot;&gt;&lt;br&gt;&lt;/font&gt;&lt;li style=&quot;margin: 0px; font-style: normal; font-variant-caps: normal; font-weight: normal; font-stretch: normal; line-height: normal; font-family: &amp;quot;Helvetica Neue&amp;quot;; font-size-adjust: none; font-kerning: auto; font-variant-alternates: normal; font-variant-ligatures: normal; font-variant-numeric: normal; font-variant-east-asian: normal; font-variant-position: normal; font-variant-emoji: normal; font-feature-settings: normal; font-optical-sizing: auto; font-variation-settings: normal;&quot;&gt;&lt;font style=&quot;font-size: 16px;&quot;&gt;&lt;span style=&quot;font-style: normal; font-variant-caps: normal; font-weight: normal; font-stretch: normal; line-height: normal; font-family: Menlo; font-size-adjust: none; font-kerning: auto; font-variant-alternates: normal; font-variant-ligatures: normal; font-variant-numeric: normal; font-variant-east-asian: normal; font-variant-position: normal; font-variant-emoji: normal; font-feature-settings: normal; font-optical-sizing: auto; font-variation-settings: normal;&quot;&gt;&lt;/span&gt;Collect information on connected devices (MAC addresses, IP addresses, device types).&lt;/font&gt;&lt;/li&gt;&lt;font style=&quot;font-size: 16px;&quot;&gt;&lt;br&gt;&lt;/font&gt;&lt;li style=&quot;margin: 0px; font-style: normal; font-variant-caps: normal; font-weight: normal; font-stretch: normal; line-height: normal; font-family: &amp;quot;Helvetica Neue&amp;quot;; font-size-adjust: none; font-kerning: auto; font-variant-alternates: normal; font-variant-ligatures: normal; font-variant-numeric: normal; font-variant-east-asian: normal; font-variant-position: normal; font-variant-emoji: normal; font-feature-settings: normal; font-optical-sizing: auto; font-variation-settings: normal;&quot;&gt;&lt;font style=&quot;font-size: 16px;&quot;&gt;&lt;span style=&quot;font-style: normal; font-variant-caps: normal; font-weight: normal; font-stretch: normal; line-height: normal; font-family: Menlo; font-size-adjust: none; font-kerning: auto; font-variant-alternates: normal; font-variant-ligatures: normal; font-variant-numeric: normal; font-variant-east-asian: normal; font-variant-position: normal; font-variant-emoji: normal; font-feature-settings: normal; font-optical-sizing: auto; font-variation-settings: normal;&quot;&gt;&lt;/span&gt;Record timestamp of connection and disconnection events.&lt;/font&gt;&lt;/li&gt;&lt;font style=&quot;font-size: 16px;&quot;&gt;&lt;br&gt;&lt;/font&gt;&lt;li style=&quot;margin: 0px; font-style: normal; font-variant-caps: normal; font-weight: normal; font-stretch: normal; line-height: normal; font-family: &amp;quot;Helvetica Neue&amp;quot;; font-size-adjust: none; font-kerning: auto; font-variant-alternates: normal; font-variant-ligatures: normal; font-variant-numeric: normal; font-variant-east-asian: normal; font-variant-position: normal; font-variant-emoji: normal; font-feature-settings: normal; font-optical-sizing: auto; font-variation-settings: normal;&quot;&gt;&lt;font style=&quot;font-size: 16px;&quot;&gt;&lt;span style=&quot;font-style: normal; font-variant-caps: normal; font-weight: normal; font-stretch: normal; line-height: normal; font-family: Menlo; font-size-adjust: none; font-kerning: auto; font-variant-alternates: normal; font-variant-ligatures: normal; font-variant-numeric: normal; font-variant-east-asian: normal; font-variant-position: normal; font-variant-emoji: normal; font-feature-settings: normal; font-optical-sizing: auto; font-variation-settings: normal;&quot;&gt;&lt;/span&gt;Capture configuration changes (settings modified, firmware updates).&lt;/font&gt;&lt;/li&gt;&lt;font style=&quot;font-size: 16px;&quot;&gt;&lt;br&gt;&lt;/font&gt;&lt;/ul&gt;&lt;font style=&quot;font-size: 16px;&quot;&gt;&lt;br&gt;&lt;/font&gt;&lt;li style=&quot;margin: 0px; font-style: normal; font-variant-caps: normal; font-weight: normal; font-stretch: normal; line-height: normal; font-family: &amp;quot;Helvetica Neue&amp;quot;; font-size-adjust: none; font-kerning: auto; font-variant-alternates: normal; font-variant-ligatures: normal; font-variant-numeric: normal; font-variant-east-asian: normal; font-variant-position: normal; font-feature-settings: normal; font-optical-sizing: auto; font-variation-settings: normal;&quot;&gt;&lt;font style=&quot;font-size: 16px;&quot;&gt;&lt;span style=&quot;font-style: normal; font-variant-caps: normal; font-weight: normal; font-stretch: normal; line-height: normal; font-family: Menlo; font-size-adjust: none; font-kerning: auto; font-variant-alternates: normal; font-variant-ligatures: normal; font-variant-numeric: normal; font-variant-east-asian: normal; font-variant-position: normal; font-variant-emoji: normal; font-feature-settings: normal; font-optical-sizing: auto; font-variation-settings: normal;&quot;&gt;&lt;/span&gt;&lt;b&gt;Serialize Logs:&lt;/b&gt;&lt;/font&gt;&lt;/li&gt;&lt;font style=&quot;font-size: 16px;&quot;&gt;&lt;br&gt;&lt;/font&gt;&lt;ul style=&quot;list-style-type: disc;&quot;&gt;&lt;font style=&quot;font-size: 16px;&quot;&gt;&lt;br&gt;&lt;/font&gt;&lt;li style=&quot;margin: 0px; font-style: normal; font-variant-caps: normal; font-weight: normal; font-stretch: normal; line-height: normal; font-family: &amp;quot;Helvetica Neue&amp;quot;; font-size-adjust: none; font-kerning: auto; font-variant-alternates: normal; font-variant-ligatures: normal; font-variant-numeric: normal; font-variant-east-asian: normal; font-variant-position: normal; font-variant-emoji: normal; font-feature-settings: normal; font-optical-sizing: auto; font-variation-settings: normal;&quot;&gt;&lt;font style=&quot;font-size: 16px;&quot;&gt;&lt;span style=&quot;font-style: normal; font-variant-caps: normal; font-weight: normal; font-stretch: normal; line-height: normal; font-family: Menlo; font-size-adjust: none; font-kerning: auto; font-variant-alternates: normal; font-variant-ligatures: normal; font-variant-numeric: normal; font-variant-east-asian: normal; font-variant-position: normal; font-variant-emoji: normal; font-feature-settings: normal; font-optical-sizing: auto; font-variation-settings: normal;&quot;&gt;&lt;/span&gt;Format logs in a structured manner (e.g., syslog format or custom JSON format).&lt;/font&gt;&lt;/li&gt;&lt;font style=&quot;font-size: 16px;&quot;&gt;&lt;br&gt;&lt;/font&gt;&lt;li style=&quot;margin: 0px; font-style: normal; font-variant-caps: normal; font-weight: normal; font-stretch: normal; line-height: normal; font-family: &amp;quot;Helvetica Neue&amp;quot;; font-size-adjust: none; font-kerning: auto; font-variant-alternates: normal; font-variant-ligatures: normal; font-variant-numeric: normal; font-variant-east-asian: normal; font-variant-position: normal; font-variant-emoji: normal; font-feature-settings: normal; font-optical-sizing: auto; font-variation-settings: normal;&quot;&gt;&lt;font style=&quot;font-size: 16px;&quot;&gt;&lt;span style=&quot;font-style: normal; font-variant-caps: normal; font-weight: normal; font-stretch: normal; line-height: normal; font-family: Menlo; font-size-adjust: none; font-kerning: auto; font-variant-alternates: normal; font-variant-ligatures: normal; font-variant-numeric: normal; font-variant-east-asian: normal; font-variant-position: normal; font-variant-emoji: normal; font-feature-settings: normal; font-optical-sizing: auto; font-variation-settings: normal;&quot;&gt;&lt;/span&gt;Include details like event type, timestamp, device information, and any relevant parameters.&lt;/font&gt;&lt;/li&gt;&lt;font style=&quot;font-size: 16px;&quot;&gt;&lt;br&gt;&lt;/font&gt;&lt;/ul&gt;&lt;font style=&quot;font-size: 16px;&quot;&gt;&lt;br&gt;&lt;/font&gt;&lt;li style=&quot;margin: 0px; font-style: normal; font-variant-caps: normal; font-weight: normal; font-stretch: normal; line-height: normal; font-family: &amp;quot;Helvetica Neue&amp;quot;; font-size-adjust: none; font-kerning: auto; font-variant-alternates: normal; font-variant-ligatures: normal; font-variant-numeric: normal; font-variant-east-asian: normal; font-variant-position: normal; font-feature-settings: normal; font-optical-sizing: auto; font-variation-settings: normal;&quot;&gt;&lt;font style=&quot;font-size: 16px;&quot;&gt;&lt;span style=&quot;font-style: normal; font-variant-caps: normal; font-weight: normal; font-stretch: normal; line-height: normal; font-family: Menlo; font-size-adjust: none; font-kerning: auto; font-variant-alternates: normal; font-variant-ligatures: normal; font-variant-numeric: normal; font-variant-east-asian: normal; font-variant-position: normal; font-variant-emoji: normal; font-feature-settings: normal; font-optical-sizing: auto; font-variation-settings: normal;&quot;&gt;&lt;/span&gt;&lt;b&gt;Storage:&lt;/b&gt;&lt;/font&gt;&lt;/li&gt;&lt;font style=&quot;font-size: 16px;&quot;&gt;&lt;br&gt;&lt;/font&gt;&lt;ul style=&quot;list-style-type: disc;&quot;&gt;&lt;font style=&quot;font-size: 16px;&quot;&gt;&lt;br&gt;&lt;/font&gt;&lt;li style=&quot;margin: 0px; font-style: normal; font-variant-caps: normal; font-weight: normal; font-stretch: normal; line-height: normal; font-family: &amp;quot;Helvetica Neue&amp;quot;; font-size-adjust: none; font-kerning: auto; font-variant-alternates: normal; font-variant-ligatures: normal; font-variant-numeric: normal; font-variant-east-asian: normal; font-variant-position: normal; font-variant-emoji: normal; font-feature-settings: normal; font-optical-sizing: auto; font-variation-settings: normal;&quot;&gt;&lt;font style=&quot;font-size: 16px;&quot;&gt;&lt;span style=&quot;font-style: normal; font-variant-caps: normal; font-weight: normal; font-stretch: normal; line-height: normal; font-family: Menlo; font-size-adjust: none; font-kerning: auto; font-variant-alternates: normal; font-variant-ligatures: normal; font-variant-numeric: normal; font-variant-east-asian: normal; font-variant-position: normal; font-variant-emoji: normal; font-feature-settings: normal; font-optical-sizing: auto; font-variation-settings: normal;&quot;&gt;&lt;/span&gt;Store logs securely, considering retention policies and storage capacity.&lt;/font&gt;&lt;/li&gt;&lt;font style=&quot;font-size: 16px;&quot;&gt;&lt;br&gt;&lt;/font&gt;&lt;li style=&quot;margin: 0px; font-style: normal; font-variant-caps: normal; font-weight: normal; font-stretch: normal; line-height: normal; font-family: &amp;quot;Helvetica Neue&amp;quot;; font-size-adjust: none; font-kerning: auto; font-variant-alternates: normal; font-variant-ligatures: normal; font-variant-numeric: normal; font-variant-east-asian: normal; font-variant-position: normal; font-variant-emoji: normal; font-feature-settings: normal; font-optical-sizing: auto; font-variation-settings: normal;&quot;&gt;&lt;font style=&quot;font-size: 16px;&quot;&gt;&lt;span style=&quot;font-style: normal; font-variant-caps: normal; font-weight: normal; font-stretch: normal; line-height: normal; font-family: Menlo; font-size-adjust: none; font-kerning: auto; font-variant-alternates: normal; font-variant-ligatures: normal; font-variant-numeric: normal; font-variant-east-asian: normal; font-variant-position: normal; font-variant-emoji: normal; font-feature-settings: normal; font-optical-sizing: auto; font-variation-settings: normal;&quot;&gt;&lt;/span&gt;Use appropriate storage mechanisms, such as file systems or cloud-based storage.&lt;/font&gt;&lt;/li&gt;&lt;font style=&quot;font-size: 16px;&quot;&gt;&lt;br&gt;&lt;/font&gt;&lt;/ul&gt;&lt;font style=&quot;font-size: 16px;&quot;&gt;&lt;br&gt;&lt;/font&gt;&lt;li style=&quot;margin: 0px; font-style: normal; font-variant-caps: normal; font-weight: normal; font-stretch: normal; line-height: normal; font-family: &amp;quot;Helvetica Neue&amp;quot;; font-size-adjust: none; font-kerning: auto; font-variant-alternates: normal; font-variant-ligatures: normal; font-variant-numeric: normal; font-variant-east-asian: normal; font-variant-position: normal; font-feature-settings: normal; font-optical-sizing: auto; font-variation-settings: normal;&quot;&gt;&lt;font style=&quot;font-size: 16px;&quot;&gt;&lt;span style=&quot;font-style: normal; font-variant-caps: normal; font-weight: normal; font-stretch: normal; line-height: normal; font-family: Menlo; font-size-adjust: none; font-kerning: auto; font-variant-alternates: normal; font-variant-ligatures: normal; font-variant-numeric: normal; font-variant-east-asian: normal; font-variant-position: normal; font-variant-emoji: normal; font-feature-settings: normal; font-optical-sizing: auto; font-variation-settings: normal;&quot;&gt;&lt;/span&gt;&lt;b&gt;Collect Signal Strength Data:&lt;/b&gt;&lt;/font&gt;&lt;/li&gt;&lt;font style=&quot;font-size: 16px;&quot;&gt;&lt;br&gt;&lt;/font&gt;&lt;ul style=&quot;list-style-type: disc;&quot;&gt;&lt;font style=&quot;font-size: 16px;&quot;&gt;&lt;br&gt;&lt;/font&gt;&lt;li style=&quot;margin: 0px; font-style: normal; font-variant-caps: normal; font-weight: normal; font-stretch: normal; line-height: normal; font-family: &amp;quot;Helvetica Neue&amp;quot;; font-size-adjust: none; font-kerning: auto; font-variant-alternates: normal; font-variant-ligatures: normal; font-variant-numeric: normal; font-variant-east-asian: normal; font-variant-position: normal; font-variant-emoji: normal; font-feature-settings: normal; font-optical-sizing: auto; font-variation-settings: normal;&quot;&gt;&lt;font style=&quot;font-size: 16px;&quot;&gt;&lt;span style=&quot;font-style: normal; font-variant-caps: normal; font-weight: normal; font-stretch: normal; line-height: normal; font-family: Menlo; font-size-adjust: none; font-kerning: auto; font-variant-alternates: normal; font-variant-ligatures: normal; font-variant-numeric: normal; font-variant-east-asian: normal; font-variant-position: normal; font-variant-emoji: normal; font-feature-settings: normal; font-optical-sizing: auto; font-variation-settings: normal;&quot;&gt;&lt;/span&gt;Continuously monitor and record the signal strength of connected devices at different access points.&lt;/font&gt;&lt;/li&gt;&lt;font style=&quot;font-size: 16px;&quot;&gt;&lt;br&gt;&lt;/font&gt;&lt;/ul&gt;&lt;font style=&quot;font-size: 16px;&quot;&gt;&lt;br&gt;&lt;/font&gt;&lt;li style=&quot;margin: 0px; font-style: normal; font-variant-caps: normal; font-weight: normal; font-stretch: normal; line-height: normal; font-family: &amp;quot;Helvetica Neue&amp;quot;; font-size-adjust: none; font-kerning: auto; font-variant-alternates: normal; font-variant-ligatures: normal; font-variant-numeric: normal; font-variant-east-asian: normal; font-variant-position: normal; font-feature-settings: normal; font-optical-sizing: auto; font-variation-settings: normal;&quot;&gt;&lt;font style=&quot;font-size: 16px;&quot;&gt;&lt;span style=&quot;font-style: normal; font-variant-caps: normal; font-weight: normal; font-stretch: normal; line-height: normal; font-family: Menlo; font-size-adjust: none; font-kerning: auto; font-variant-alternates: normal; font-variant-ligatures: normal; font-variant-numeric: normal; font-variant-east-asian: normal; font-variant-position: normal; font-variant-emoji: normal; font-feature-settings: normal; font-optical-sizing: auto; font-variation-settings: normal;&quot;&gt;&lt;/span&gt;&lt;b&gt;Access Point Coverage Mapping:&lt;/b&gt;&lt;/font&gt;&lt;/li&gt;&lt;font style=&quot;font-size: 16px;&quot;&gt;&lt;br&gt;&lt;/font&gt;&lt;ul style=&quot;list-style-type: disc;&quot;&gt;&lt;font style=&quot;font-size: 16px;&quot;&gt;&lt;br&gt;&lt;/font&gt;&lt;li style=&quot;margin: 0px; font-style: normal; font-variant-caps: normal; font-weight: normal; font-stretch: normal; line-height: normal; font-family: &amp;quot;Helvetica Neue&amp;quot;; font-size-adjust: none; font-kerning: auto; font-variant-alternates: normal; font-variant-ligatures: normal; font-variant-numeric: normal; font-variant-east-asian: normal; font-variant-position: normal; font-variant-emoji: normal; font-feature-settings: normal; font-optical-sizing: auto; font-variation-settings: normal;&quot;&gt;&lt;font style=&quot;font-size: 16px;&quot;&gt;&lt;span style=&quot;font-style: normal; font-variant-caps: normal; font-weight: normal; font-stretch: normal; line-height: normal; font-family: Menlo; font-size-adjust: none; font-kerning: auto; font-variant-alternates: normal; font-variant-ligatures: normal; font-variant-numeric: normal; font-variant-east-asian: normal; font-variant-position: normal; font-variant-emoji: normal; font-feature-settings: normal; font-optical-sizing: auto; font-variation-settings: normal;&quot;&gt;&lt;/span&gt;Create a map of the Wi-Fi coverage area, indicating the locations of all access points and their signal strength coverage.&lt;/font&gt;&lt;/li&gt;&lt;font style=&quot;font-size: 16px;&quot;&gt;&lt;br&gt;&lt;/font&gt;&lt;/ul&gt;&lt;font style=&quot;font-size: 16px;&quot;&gt;&lt;br&gt;&lt;/font&gt;&lt;li style=&quot;margin: 0px; font-style: normal; font-variant-caps: normal; font-weight: normal; font-stretch: normal; line-height: normal; font-family: &amp;quot;Helvetica Neue&amp;quot;; font-size-adjust: none; font-kerning: auto; font-variant-alternates: normal; font-variant-ligatures: normal; font-variant-numeric: normal; font-variant-east-asian: normal; font-variant-position: normal; font-feature-settings: normal; font-optical-sizing: auto; font-variation-settings: normal;&quot;&gt;&lt;font style=&quot;font-size: 16px;&quot;&gt;&lt;span style=&quot;font-style: normal; font-variant-caps: normal; font-weight: normal; font-stretch: normal; line-height: normal; font-family: Menlo; font-size-adjust: none; font-kerning: auto; font-variant-alternates: normal; font-variant-ligatures: normal; font-variant-numeric: normal; font-variant-east-asian: normal; font-variant-position: normal; font-variant-emoji: normal; font-feature-settings: normal; font-optical-sizing: auto; font-variation-settings: normal;&quot;&gt;&lt;/span&gt;&lt;b&gt;Signal Strength Calibration:&lt;/b&gt;&lt;/font&gt;&lt;/li&gt;&lt;font style=&quot;font-size: 16px;&quot;&gt;&lt;br&gt;&lt;/font&gt;&lt;ul style=&quot;list-style-type: disc;&quot;&gt;&lt;font style=&quot;font-size: 16px;&quot;&gt;&lt;br&gt;&lt;/font&gt;&lt;li style=&quot;margin: 0px; font-style: normal; font-variant-caps: normal; font-weight: normal; font-stretch: normal; line-height: normal; font-family: &amp;quot;Helvetica Neue&amp;quot;; font-size-adjust: none; font-kerning: auto; font-variant-alternates: normal; font-variant-ligatures: normal; font-variant-numeric: normal; font-variant-east-asian: normal; font-variant-position: normal; font-variant-emoji: normal; font-feature-settings: normal; font-optical-sizing: auto; font-variation-settings: normal;&quot;&gt;&lt;font style=&quot;font-size: 16px;&quot;&gt;&lt;span style=&quot;font-style: normal; font-variant-caps: normal; font-weight: normal; font-stretch: normal; line-height: normal; font-family: Menlo; font-size-adjust: none; font-kerning: auto; font-variant-alternates: normal; font-variant-ligatures: normal; font-variant-numeric: normal; font-variant-east-asian: normal; font-variant-position: normal; font-variant-emoji: normal; font-feature-settings: normal; font-optical-sizing: auto; font-variation-settings: normal;&quot;&gt;&lt;/span&gt;Calibrate signal strength data based on environmental factors (obstacles, interference) that may affect signal propagation.&lt;/font&gt;&lt;/li&gt;&lt;font style=&quot;font-size: 16px;&quot;&gt;&lt;br&gt;&lt;/font&gt;&lt;/ul&gt;&lt;font style=&quot;font-size: 16px;&quot;&gt;&lt;br&gt;&lt;/font&gt;&lt;li style=&quot;margin: 0px; font-style: normal; font-variant-caps: normal; font-weight: normal; font-stretch: normal; line-height: normal; font-family: &amp;quot;Helvetica Neue&amp;quot;; font-size-adjust: none; font-kerning: auto; font-variant-alternates: normal; font-variant-ligatures: normal; font-variant-numeric: normal; font-variant-east-asian: normal; font-variant-position: normal; font-feature-settings: normal; font-optical-sizing: auto; font-variation-settings: normal;&quot;&gt;&lt;font style=&quot;font-size: 16px;&quot;&gt;&lt;span style=&quot;font-style: normal; font-variant-caps: normal; font-weight: normal; font-stretch: normal; line-height: normal; font-family: Menlo; font-size-adjust: none; font-kerning: auto; font-variant-alternates: normal; font-variant-ligatures: normal; font-variant-numeric: normal; font-variant-east-asian: normal; font-variant-position: normal; font-variant-emoji: normal; font-feature-settings: normal; font-optical-sizing: auto; font-variation-settings: normal;&quot;&gt;&lt;/span&gt;&lt;b&gt;Triangulation Algorithm:&lt;/b&gt;&lt;/font&gt;&lt;/li&gt;&lt;font style=&quot;font-size: 16px;&quot;&gt;&lt;br&gt;&lt;/font&gt;&lt;ul style=&quot;list-style-type: disc;&quot;&gt;&lt;font style=&quot;font-size: 16px;&quot;&gt;&lt;br&gt;&lt;/font&gt;&lt;li style=&quot;margin: 0px; font-style: normal; font-variant-caps: normal; font-weight: normal; font-stretch: normal; line-height: normal; font-family: &amp;quot;Helvetica Neue&amp;quot;; font-size-adjust: none; font-kerning: auto; font-variant-alternates: normal; font-variant-ligatures: normal; font-variant-numeric: normal; font-variant-east-asian: normal; font-variant-position: normal; font-variant-emoji: normal; font-feature-settings: normal; font-optical-sizing: auto; font-variation-settings: normal;&quot;&gt;&lt;font style=&quot;font-size: 16px;&quot;&gt;&lt;span style=&quot;font-style: normal; font-variant-caps: normal; font-weight: normal; font-stretch: normal; line-height: normal; font-family: Menlo; font-size-adjust: none; font-kerning: auto; font-variant-alternates: normal; font-variant-ligatures: normal; font-variant-numeric: normal; font-variant-east-asian: normal; font-variant-position: normal; font-variant-emoji: normal; font-feature-settings: normal; font-optical-sizing: auto; font-variation-settings: normal;&quot;&gt;&lt;/span&gt;Implement a triangulation algorithm using the signal strength data from at least three different access points.&lt;/font&gt;&lt;/li&gt;&lt;font style=&quot;font-size: 16px;&quot;&gt;&lt;br&gt;&lt;/font&gt;&lt;li style=&quot;margin: 0px; font-style: normal; font-variant-caps: normal; font-weight: normal; font-stretch: normal; line-height: normal; font-family: &amp;quot;Helvetica Neue&amp;quot;; font-size-adjust: none; font-kerning: auto; font-variant-alternates: normal; font-variant-ligatures: normal; font-variant-numeric: normal; font-variant-east-asian: normal; font-variant-position: normal; font-variant-emoji: normal; font-feature-settings: normal; font-optical-sizing: auto; font-variation-settings: normal;&quot;&gt;&lt;font style=&quot;font-size: 16px;&quot;&gt;&lt;span style=&quot;font-style: normal; font-variant-caps: normal; font-weight: normal; font-stretch: normal; line-height: normal; font-family: Menlo; font-size-adjust: none; font-kerning: auto; font-variant-alternates: normal; font-variant-ligatures: normal; font-variant-numeric: normal; font-variant-east-asian: normal; font-variant-position: normal; font-variant-emoji: normal; font-feature-settings: normal; font-optical-sizing: auto; font-variation-settings: normal;&quot;&gt;&lt;/span&gt;Calculate the estimated location of a device based on the intersecting points of the signal strength circles from the respective access points.&lt;/font&gt;&lt;/li&gt;&lt;font style=&quot;font-size: 16px;&quot;&gt;&lt;br&gt;&lt;/font&gt;&lt;/ul&gt;&lt;font style=&quot;font-size: 16px;&quot;&gt;&lt;br&gt;&lt;/font&gt;&lt;li style=&quot;margin: 0px; font-style: normal; font-variant-caps: normal; font-weight: normal; font-stretch: normal; line-height: normal; font-family: &amp;quot;Helvetica Neue&amp;quot;; font-size-adjust: none; font-kerning: auto; font-variant-alternates: normal; font-variant-ligatures: normal; font-variant-numeric: normal; font-variant-east-asian: normal; font-variant-position: normal; font-feature-settings: normal; font-optical-sizing: auto; font-variation-settings: normal;&quot;&gt;&lt;font style=&quot;font-size: 16px;&quot;&gt;&lt;span style=&quot;font-style: normal; font-variant-caps: normal; font-weight: normal; font-stretch: normal; line-height: normal; font-family: Menlo; font-size-adjust: none; font-kerning: auto; font-variant-alternates: normal; font-variant-ligatures: normal; font-variant-numeric: normal; font-variant-east-asian: normal; font-variant-position: normal; font-variant-emoji: normal; font-feature-settings: normal; font-optical-sizing: auto; font-variation-settings: normal;&quot;&gt;&lt;/span&gt;&lt;b&gt;Signal Fingerprinting:&lt;/b&gt;&lt;/font&gt;&lt;/li&gt;&lt;font style=&quot;font-size: 16px;&quot;&gt;&lt;br&gt;&lt;/font&gt;&lt;ul style=&quot;list-style-type: disc;&quot;&gt;&lt;font style=&quot;font-size: 16px;&quot;&gt;&lt;br&gt;&lt;/font&gt;&lt;li style=&quot;margin: 0px; font-style: normal; font-variant-caps: normal; font-weight: normal; font-stretch: normal; line-height: normal; font-family: &amp;quot;Helvetica Neue&amp;quot;; font-size-adjust: none; font-kerning: auto; font-variant-alternates: normal; font-variant-ligatures: normal; font-variant-numeric: normal; font-variant-east-asian: normal; font-variant-position: normal; font-variant-emoji: normal; font-feature-settings: normal; font-optical-sizing: auto; font-variation-settings: normal;&quot;&gt;&lt;font style=&quot;font-size: 16px;&quot;&gt;&lt;span style=&quot;font-style: normal; font-variant-caps: normal; font-weight: normal; font-stretch: normal; line-height: normal; font-family: Menlo; font-size-adjust: none; font-kerning: auto; font-variant-alternates: normal; font-variant-ligatures: normal; font-variant-numeric: normal; font-variant-east-asian: normal; font-variant-position: normal; font-variant-emoji: normal; font-feature-settings: normal; font-optical-sizing: auto; font-variation-settings: normal;&quot;&gt;&lt;/span&gt;Create a fingerprint database that maps signal strength patterns to specific locations within the Wi-Fi coverage area.&lt;/font&gt;&lt;/li&gt;&lt;font style=&quot;font-size: 16px;&quot;&gt;&lt;br&gt;&lt;/font&gt;&lt;li style=&quot;margin: 0px; font-style: normal; font-variant-caps: normal; font-weight: normal; font-stretch: normal; line-height: normal; font-family: &amp;quot;Helvetica Neue&amp;quot;; font-size-adjust: none; font-kerning: auto; font-variant-alternates: normal; font-variant-ligatures: normal; font-variant-numeric: normal; font-variant-east-asian: normal; font-variant-position: normal; font-variant-emoji: normal; font-feature-settings: normal; font-optical-sizing: auto; font-variation-settings: normal;&quot;&gt;&lt;font style=&quot;font-size: 16px;&quot;&gt;&lt;span style=&quot;font-style: normal; font-variant-caps: normal; font-weight: normal; font-stretch: normal; line-height: normal; font-family: Menlo; font-size-adjust: none; font-kerning: auto; font-variant-alternates: normal; font-variant-ligatures: normal; font-variant-numeric: normal; font-variant-east-asian: normal; font-variant-position: normal; font-variant-emoji: normal; font-feature-settings: normal; font-optical-sizing: auto; font-variation-settings: normal;&quot;&gt;&lt;/span&gt;Use machine learning techniques to improve the accuracy of location predictions based on signal fingerprints.&lt;/font&gt;&lt;/li&gt;&lt;font style=&quot;font-size: 16px;&quot;&gt;&lt;br&gt;&lt;/font&gt;&lt;/ul&gt;&lt;font style=&quot;font-size: 16px;&quot;&gt;&lt;br&gt;&lt;/font&gt;&lt;/ul&gt;&lt;font style=&quot;font-size: 16px;&quot;&gt;&lt;br&gt;&lt;/font&gt;" style="text;whiteSpace=wrap;html=1;" parent="1" vertex="1">
          <mxGeometry y="-570" width="830" height="610" as="geometry" />
        </mxCell>
        <mxCell id="2g5OPuSMzfDAiV49BnSi-12" style="edgeStyle=orthogonalEdgeStyle;rounded=0;orthogonalLoop=1;jettySize=auto;html=1;entryX=0;entryY=0.5;entryDx=0;entryDy=0;" parent="1" source="2g5OPuSMzfDAiV49BnSi-5" target="2g5OPuSMzfDAiV49BnSi-15" edge="1">
          <mxGeometry relative="1" as="geometry">
            <mxPoint x="510" y="-870" as="targetPoint" />
          </mxGeometry>
        </mxCell>
        <mxCell id="2g5OPuSMzfDAiV49BnSi-5" value="Log Collection" style="rounded=0;whiteSpace=wrap;html=1;" parent="1" vertex="1">
          <mxGeometry x="230" y="-930" width="120" height="60" as="geometry" />
        </mxCell>
        <mxCell id="2g5OPuSMzfDAiV49BnSi-11" style="edgeStyle=orthogonalEdgeStyle;rounded=0;orthogonalLoop=1;jettySize=auto;html=1;" parent="1" source="2g5OPuSMzfDAiV49BnSi-6" target="2g5OPuSMzfDAiV49BnSi-10" edge="1">
          <mxGeometry relative="1" as="geometry" />
        </mxCell>
        <mxCell id="2g5OPuSMzfDAiV49BnSi-6" value="Serialize Logs" style="rounded=0;whiteSpace=wrap;html=1;" parent="1" vertex="1">
          <mxGeometry x="580" y="-930" width="120" height="60" as="geometry" />
        </mxCell>
        <mxCell id="2g5OPuSMzfDAiV49BnSi-9" style="edgeStyle=orthogonalEdgeStyle;rounded=0;orthogonalLoop=1;jettySize=auto;html=1;entryX=0;entryY=0.5;entryDx=0;entryDy=0;" parent="1" source="2g5OPuSMzfDAiV49BnSi-7" target="2g5OPuSMzfDAiV49BnSi-5" edge="1">
          <mxGeometry relative="1" as="geometry" />
        </mxCell>
        <mxCell id="2g5OPuSMzfDAiV49BnSi-7" value="Wi-Fi AP" style="ellipse;whiteSpace=wrap;html=1;aspect=fixed;" parent="1" vertex="1">
          <mxGeometry x="100" y="-940" width="80" height="80" as="geometry" />
        </mxCell>
        <mxCell id="2g5OPuSMzfDAiV49BnSi-19" style="edgeStyle=orthogonalEdgeStyle;rounded=0;orthogonalLoop=1;jettySize=auto;html=1;entryX=0.5;entryY=0;entryDx=0;entryDy=0;" parent="1" source="2g5OPuSMzfDAiV49BnSi-10" target="2g5OPuSMzfDAiV49BnSi-20" edge="1">
          <mxGeometry relative="1" as="geometry">
            <mxPoint x="400" y="-680" as="targetPoint" />
          </mxGeometry>
        </mxCell>
        <mxCell id="2g5OPuSMzfDAiV49BnSi-10" value="Log Storage" style="shape=cylinder3;whiteSpace=wrap;html=1;boundedLbl=1;backgroundOutline=1;size=15;" parent="1" vertex="1">
          <mxGeometry x="610" y="-820" width="60" height="80" as="geometry" />
        </mxCell>
        <mxCell id="2g5OPuSMzfDAiV49BnSi-21" style="edgeStyle=orthogonalEdgeStyle;rounded=0;orthogonalLoop=1;jettySize=auto;html=1;" parent="1" source="2g5OPuSMzfDAiV49BnSi-14" target="2g5OPuSMzfDAiV49BnSi-20" edge="1">
          <mxGeometry relative="1" as="geometry" />
        </mxCell>
        <object label="Signal Strength Calibration" id="2g5OPuSMzfDAiV49BnSi-14">
          <mxCell style="rounded=0;whiteSpace=wrap;html=1;" parent="1" vertex="1">
            <mxGeometry x="390" y="-690" width="120" height="60" as="geometry" />
          </mxCell>
        </object>
        <mxCell id="2g5OPuSMzfDAiV49BnSi-16" style="edgeStyle=orthogonalEdgeStyle;rounded=0;orthogonalLoop=1;jettySize=auto;html=1;entryX=0;entryY=0.5;entryDx=0;entryDy=0;" parent="1" source="2g5OPuSMzfDAiV49BnSi-15" target="2g5OPuSMzfDAiV49BnSi-6" edge="1">
          <mxGeometry relative="1" as="geometry" />
        </mxCell>
        <mxCell id="2g5OPuSMzfDAiV49BnSi-15" value="Data Cleaning" style="rounded=0;whiteSpace=wrap;html=1;" parent="1" vertex="1">
          <mxGeometry x="400" y="-930" width="120" height="60" as="geometry" />
        </mxCell>
        <mxCell id="2g5OPuSMzfDAiV49BnSi-18" style="edgeStyle=orthogonalEdgeStyle;rounded=0;orthogonalLoop=1;jettySize=auto;html=1;entryX=1;entryY=0.5;entryDx=0;entryDy=0;" parent="1" source="2g5OPuSMzfDAiV49BnSi-17" target="2g5OPuSMzfDAiV49BnSi-14" edge="1">
          <mxGeometry relative="1" as="geometry" />
        </mxCell>
        <mxCell id="2g5OPuSMzfDAiV49BnSi-17" value="AP Mapping" style="shape=cylinder3;whiteSpace=wrap;html=1;boundedLbl=1;backgroundOutline=1;size=15;" parent="1" vertex="1">
          <mxGeometry x="610" y="-700" width="60" height="80" as="geometry" />
        </mxCell>
        <object label="Triangulation Algorithm" id="2g5OPuSMzfDAiV49BnSi-20">
          <mxCell style="rounded=0;whiteSpace=wrap;html=1;" parent="1" vertex="1">
            <mxGeometry x="190" y="-690" width="120" height="60" as="geometry" />
          </mxCell>
        </object>
      </root>
    </mxGraphModel>
  </diagram>
  <diagram id="oF36L6zyvJ1wx9mA3d1M" name="Overall Architecture">
    <mxGraphModel dx="1283" dy="849" grid="1" gridSize="10" guides="1" tooltips="1" connect="1" arrows="1" fold="1" page="1" pageScale="1" pageWidth="850" pageHeight="1100" math="0" shadow="0">
      <root>
        <mxCell id="0" />
        <mxCell id="1" parent="0" />
        <mxCell id="Utvqi5sbb1CuuDNk3O0w-1" value="User Input&amp;nbsp;Interface" style="swimlane;horizontal=0;whiteSpace=wrap;html=1;" parent="1" vertex="1">
          <mxGeometry x="40" y="213" width="200" height="170" as="geometry" />
        </mxCell>
        <mxCell id="Utvqi5sbb1CuuDNk3O0w-2" value="Input Floor Map" style="rounded=0;whiteSpace=wrap;html=1;" parent="Utvqi5sbb1CuuDNk3O0w-1" vertex="1">
          <mxGeometry x="50" y="10" width="120" height="40" as="geometry" />
        </mxCell>
        <mxCell id="Utvqi5sbb1CuuDNk3O0w-3" value="Input Access Point Metadat" style="rounded=0;whiteSpace=wrap;html=1;" parent="Utvqi5sbb1CuuDNk3O0w-1" vertex="1">
          <mxGeometry x="50" y="60" width="120" height="40" as="geometry" />
        </mxCell>
        <mxCell id="Utvqi5sbb1CuuDNk3O0w-4" value="Input Audi Sensor Metadata" style="rounded=0;whiteSpace=wrap;html=1;" parent="Utvqi5sbb1CuuDNk3O0w-1" vertex="1">
          <mxGeometry x="50" y="110" width="120" height="40" as="geometry" />
        </mxCell>
        <mxCell id="P91-GuEtjDm3UXRt7NYn-5" style="edgeStyle=orthogonalEdgeStyle;rounded=0;orthogonalLoop=1;jettySize=auto;html=1;exitX=0.5;exitY=1;exitDx=0;exitDy=0;entryX=0.5;entryY=0;entryDx=0;entryDy=0;" edge="1" parent="1" source="GKlQR40GHEnGQNF9QPMd-1" target="GKlQR40GHEnGQNF9QPMd-9">
          <mxGeometry relative="1" as="geometry">
            <mxPoint x="405" y="379" as="sourcePoint" />
            <mxPoint x="140" y="479" as="targetPoint" />
            <Array as="points">
              <mxPoint x="405" y="440" />
              <mxPoint x="140" y="440" />
            </Array>
          </mxGeometry>
        </mxCell>
        <mxCell id="P91-GuEtjDm3UXRt7NYn-10" value="Access Points&lt;br&gt;Tracking Metadata" style="edgeLabel;html=1;align=center;verticalAlign=middle;resizable=0;points=[];" vertex="1" connectable="0" parent="P91-GuEtjDm3UXRt7NYn-5">
          <mxGeometry x="-0.0076" relative="1" as="geometry">
            <mxPoint x="-11" y="-20" as="offset" />
          </mxGeometry>
        </mxCell>
        <mxCell id="GKlQR40GHEnGQNF9QPMd-1" value="Network Logs Analyzer" style="swimlane;horizontal=0;whiteSpace=wrap;html=1;" parent="1" vertex="1">
          <mxGeometry x="305" y="213" width="200" height="170" as="geometry" />
        </mxCell>
        <mxCell id="GKlQR40GHEnGQNF9QPMd-2" value="Connect to Centralized Logging Server" style="rounded=0;whiteSpace=wrap;html=1;" parent="GKlQR40GHEnGQNF9QPMd-1" vertex="1">
          <mxGeometry x="50" y="10" width="120" height="50" as="geometry" />
        </mxCell>
        <mxCell id="GKlQR40GHEnGQNF9QPMd-3" value="Identify Users and Locations" style="rounded=0;whiteSpace=wrap;html=1;" parent="GKlQR40GHEnGQNF9QPMd-1" vertex="1">
          <mxGeometry x="50" y="67" width="120" height="40" as="geometry" />
        </mxCell>
        <mxCell id="GKlQR40GHEnGQNF9QPMd-4" value="Identify Unknown&lt;br&gt;Devices" style="rounded=0;whiteSpace=wrap;html=1;" parent="GKlQR40GHEnGQNF9QPMd-1" vertex="1">
          <mxGeometry x="50" y="121" width="120" height="40" as="geometry" />
        </mxCell>
        <mxCell id="ea0h5BRPSiyKRMKJCwAG-16" style="edgeStyle=orthogonalEdgeStyle;rounded=0;orthogonalLoop=1;jettySize=auto;html=1;exitX=0;exitY=0.5;exitDx=0;exitDy=0;entryX=1;entryY=0.5;entryDx=0;entryDy=0;" parent="1" source="GKlQR40GHEnGQNF9QPMd-5" target="GKlQR40GHEnGQNF9QPMd-1" edge="1">
          <mxGeometry relative="1" as="geometry" />
        </mxCell>
        <mxCell id="P91-GuEtjDm3UXRt7NYn-7" value="Gunshot&lt;br&gt;Detection&lt;br&gt;Signal" style="edgeLabel;html=1;align=center;verticalAlign=middle;resizable=0;points=[];" vertex="1" connectable="0" parent="ea0h5BRPSiyKRMKJCwAG-16">
          <mxGeometry x="0.1732" y="2" relative="1" as="geometry">
            <mxPoint x="8" y="26" as="offset" />
          </mxGeometry>
        </mxCell>
        <mxCell id="ea0h5BRPSiyKRMKJCwAG-18" style="edgeStyle=orthogonalEdgeStyle;rounded=0;orthogonalLoop=1;jettySize=auto;html=1;exitX=0.5;exitY=1;exitDx=0;exitDy=0;entryX=0.5;entryY=0;entryDx=0;entryDy=0;" parent="1" source="GKlQR40GHEnGQNF9QPMd-5" target="ea0h5BRPSiyKRMKJCwAG-5" edge="1">
          <mxGeometry relative="1" as="geometry" />
        </mxCell>
        <mxCell id="Fi4SvyCUNMQx0gdh2Xm_-4" value="Issue First &lt;br&gt;Responder Notification" style="edgeLabel;html=1;align=center;verticalAlign=middle;resizable=0;points=[];" vertex="1" connectable="0" parent="ea0h5BRPSiyKRMKJCwAG-18">
          <mxGeometry x="0.0252" y="-2" relative="1" as="geometry">
            <mxPoint x="62" y="-4" as="offset" />
          </mxGeometry>
        </mxCell>
        <mxCell id="GKlQR40GHEnGQNF9QPMd-5" value="Acoustic Sensor Analysis" style="swimlane;horizontal=0;whiteSpace=wrap;html=1;" parent="1" vertex="1">
          <mxGeometry x="570" y="213" width="200" height="170" as="geometry" />
        </mxCell>
        <mxCell id="GKlQR40GHEnGQNF9QPMd-6" value="Connect to the Acoustic Sensor Interface" style="rounded=0;whiteSpace=wrap;html=1;" parent="GKlQR40GHEnGQNF9QPMd-5" vertex="1">
          <mxGeometry x="50" y="20" width="120" height="50" as="geometry" />
        </mxCell>
        <mxCell id="GKlQR40GHEnGQNF9QPMd-7" value="Evaluate incoming audio signals for gunshot detection" style="rounded=0;whiteSpace=wrap;html=1;" parent="GKlQR40GHEnGQNF9QPMd-5" vertex="1">
          <mxGeometry x="50" y="90" width="120" height="63" as="geometry" />
        </mxCell>
        <mxCell id="ea0h5BRPSiyKRMKJCwAG-21" style="edgeStyle=orthogonalEdgeStyle;rounded=0;orthogonalLoop=1;jettySize=auto;html=1;entryX=0;entryY=0.5;entryDx=0;entryDy=0;" parent="1" source="GKlQR40GHEnGQNF9QPMd-9" target="ea0h5BRPSiyKRMKJCwAG-1" edge="1">
          <mxGeometry relative="1" as="geometry" />
        </mxCell>
        <mxCell id="P91-GuEtjDm3UXRt7NYn-11" value="User&lt;br&gt;Location" style="edgeLabel;html=1;align=center;verticalAlign=middle;resizable=0;points=[];" vertex="1" connectable="0" parent="ea0h5BRPSiyKRMKJCwAG-21">
          <mxGeometry x="-0.0225" y="-3" relative="1" as="geometry">
            <mxPoint y="19" as="offset" />
          </mxGeometry>
        </mxCell>
        <mxCell id="ea0h5BRPSiyKRMKJCwAG-23" value="" style="edgeStyle=orthogonalEdgeStyle;rounded=0;orthogonalLoop=1;jettySize=auto;html=1;entryX=0.5;entryY=0;entryDx=0;entryDy=0;" parent="1" source="GKlQR40GHEnGQNF9QPMd-9" target="ea0h5BRPSiyKRMKJCwAG-8" edge="1">
          <mxGeometry relative="1" as="geometry" />
        </mxCell>
        <mxCell id="P91-GuEtjDm3UXRt7NYn-13" value="User Location&lt;br&gt;Metadata" style="edgeLabel;html=1;align=center;verticalAlign=middle;resizable=0;points=[];" vertex="1" connectable="0" parent="ea0h5BRPSiyKRMKJCwAG-23">
          <mxGeometry x="-0.1161" relative="1" as="geometry">
            <mxPoint x="40" as="offset" />
          </mxGeometry>
        </mxCell>
        <mxCell id="GKlQR40GHEnGQNF9QPMd-9" value="User Localisation" style="swimlane;horizontal=0;whiteSpace=wrap;html=1;" parent="1" vertex="1">
          <mxGeometry x="40" y="483" width="200" height="170" as="geometry" />
        </mxCell>
        <mxCell id="GKlQR40GHEnGQNF9QPMd-10" value="Triangulate User Location" style="rounded=0;whiteSpace=wrap;html=1;" parent="GKlQR40GHEnGQNF9QPMd-9" vertex="1">
          <mxGeometry x="50" y="20" width="120" height="50" as="geometry" />
        </mxCell>
        <mxCell id="GKlQR40GHEnGQNF9QPMd-11" value="Initiate Affected Device Live Tracking" style="rounded=0;whiteSpace=wrap;html=1;" parent="GKlQR40GHEnGQNF9QPMd-9" vertex="1">
          <mxGeometry x="50" y="90" width="120" height="63" as="geometry" />
        </mxCell>
        <mxCell id="ea0h5BRPSiyKRMKJCwAG-22" style="edgeStyle=orthogonalEdgeStyle;rounded=0;orthogonalLoop=1;jettySize=auto;html=1;exitX=1;exitY=0.5;exitDx=0;exitDy=0;entryX=0;entryY=0.5;entryDx=0;entryDy=0;" parent="1" source="ea0h5BRPSiyKRMKJCwAG-1" target="ea0h5BRPSiyKRMKJCwAG-5" edge="1">
          <mxGeometry relative="1" as="geometry" />
        </mxCell>
        <mxCell id="P91-GuEtjDm3UXRt7NYn-12" value="Escape&lt;br&gt;Route&lt;br&gt;Notification" style="edgeLabel;html=1;align=center;verticalAlign=middle;resizable=0;points=[];" vertex="1" connectable="0" parent="ea0h5BRPSiyKRMKJCwAG-22">
          <mxGeometry x="-0.2237" y="1" relative="1" as="geometry">
            <mxPoint x="7" y="23" as="offset" />
          </mxGeometry>
        </mxCell>
        <mxCell id="ea0h5BRPSiyKRMKJCwAG-1" value="Escape Route Detection" style="swimlane;horizontal=0;whiteSpace=wrap;html=1;" parent="1" vertex="1">
          <mxGeometry x="305" y="483" width="200" height="170" as="geometry" />
        </mxCell>
        <mxCell id="ea0h5BRPSiyKRMKJCwAG-2" value="Identify the closest Exit Points" style="rounded=0;whiteSpace=wrap;html=1;" parent="ea0h5BRPSiyKRMKJCwAG-1" vertex="1">
          <mxGeometry x="50" y="20" width="120" height="50" as="geometry" />
        </mxCell>
        <mxCell id="ea0h5BRPSiyKRMKJCwAG-3" value="Generate a Safe Route avoiding Emergency Blockers" style="rounded=0;whiteSpace=wrap;html=1;" parent="ea0h5BRPSiyKRMKJCwAG-1" vertex="1">
          <mxGeometry x="50" y="90" width="120" height="63" as="geometry" />
        </mxCell>
        <mxCell id="ea0h5BRPSiyKRMKJCwAG-5" value="Notification API" style="swimlane;horizontal=0;whiteSpace=wrap;html=1;" parent="1" vertex="1">
          <mxGeometry x="570" y="483" width="200" height="170" as="geometry" />
        </mxCell>
        <mxCell id="ea0h5BRPSiyKRMKJCwAG-6" value="Initiate First Responder Notification" style="rounded=0;whiteSpace=wrap;html=1;" parent="ea0h5BRPSiyKRMKJCwAG-5" vertex="1">
          <mxGeometry x="50" y="20" width="120" height="50" as="geometry" />
        </mxCell>
        <mxCell id="ea0h5BRPSiyKRMKJCwAG-7" value="Alert close by devices by Emergency Push Notification" style="rounded=0;whiteSpace=wrap;html=1;" parent="ea0h5BRPSiyKRMKJCwAG-5" vertex="1">
          <mxGeometry x="50" y="90" width="120" height="63" as="geometry" />
        </mxCell>
        <mxCell id="ea0h5BRPSiyKRMKJCwAG-8" value="User Visualisation Dashboard" style="swimlane;horizontal=0;whiteSpace=wrap;html=1;startSize=35;" parent="1" vertex="1">
          <mxGeometry x="40" y="723" width="200" height="170" as="geometry" />
        </mxCell>
        <mxCell id="ea0h5BRPSiyKRMKJCwAG-9" value="Live Track Affected Devices" style="rounded=0;whiteSpace=wrap;html=1;" parent="ea0h5BRPSiyKRMKJCwAG-8" vertex="1">
          <mxGeometry x="50" y="20" width="120" height="50" as="geometry" />
        </mxCell>
        <mxCell id="ea0h5BRPSiyKRMKJCwAG-10" value="Detect User Groups on nearby locations" style="rounded=0;whiteSpace=wrap;html=1;" parent="ea0h5BRPSiyKRMKJCwAG-8" vertex="1">
          <mxGeometry x="50" y="90" width="120" height="63" as="geometry" />
        </mxCell>
        <mxCell id="P91-GuEtjDm3UXRt7NYn-3" value="" style="edgeStyle=orthogonalEdgeStyle;rounded=0;orthogonalLoop=1;jettySize=auto;html=1;entryX=0.75;entryY=0;entryDx=0;entryDy=0;" edge="1" parent="1" source="ea0h5BRPSiyKRMKJCwAG-11" target="GKlQR40GHEnGQNF9QPMd-1">
          <mxGeometry relative="1" as="geometry" />
        </mxCell>
        <mxCell id="P91-GuEtjDm3UXRt7NYn-4" value="Network&lt;br&gt;Logs" style="edgeLabel;html=1;align=center;verticalAlign=middle;resizable=0;points=[];" vertex="1" connectable="0" parent="P91-GuEtjDm3UXRt7NYn-3">
          <mxGeometry x="-0.3556" y="-3" relative="1" as="geometry">
            <mxPoint x="-27" y="10" as="offset" />
          </mxGeometry>
        </mxCell>
        <mxCell id="ea0h5BRPSiyKRMKJCwAG-11" value="Network Logs" style="shape=cylinder3;whiteSpace=wrap;html=1;boundedLbl=1;backgroundOutline=1;size=15;" parent="1" vertex="1">
          <mxGeometry x="425" y="40" width="60" height="80" as="geometry" />
        </mxCell>
        <mxCell id="ea0h5BRPSiyKRMKJCwAG-15" style="edgeStyle=orthogonalEdgeStyle;rounded=0;orthogonalLoop=1;jettySize=auto;html=1;entryX=0.25;entryY=0;entryDx=0;entryDy=0;exitX=1;exitY=0.5;exitDx=0;exitDy=0;exitPerimeter=0;" parent="1" source="ea0h5BRPSiyKRMKJCwAG-12" target="GKlQR40GHEnGQNF9QPMd-1" edge="1">
          <mxGeometry relative="1" as="geometry" />
        </mxCell>
        <mxCell id="ct7QeWiJa9Rqd6Ye8qz--1" value="Access Point&lt;br&gt;Mapping" style="edgeLabel;html=1;align=center;verticalAlign=middle;resizable=0;points=[];" vertex="1" connectable="0" parent="ea0h5BRPSiyKRMKJCwAG-15">
          <mxGeometry x="0.1268" y="-1" relative="1" as="geometry">
            <mxPoint x="-44" y="38" as="offset" />
          </mxGeometry>
        </mxCell>
        <mxCell id="ea0h5BRPSiyKRMKJCwAG-12" value="Floor&lt;br&gt;Plan" style="shape=cylinder3;whiteSpace=wrap;html=1;boundedLbl=1;backgroundOutline=1;size=15;" parent="1" vertex="1">
          <mxGeometry x="220" y="40" width="60" height="80" as="geometry" />
        </mxCell>
        <mxCell id="P91-GuEtjDm3UXRt7NYn-1" style="edgeStyle=orthogonalEdgeStyle;rounded=0;orthogonalLoop=1;jettySize=auto;html=1;exitX=0.5;exitY=0;exitDx=0;exitDy=0;entryX=0;entryY=0.5;entryDx=0;entryDy=0;entryPerimeter=0;" edge="1" parent="1" source="Utvqi5sbb1CuuDNk3O0w-1" target="ea0h5BRPSiyKRMKJCwAG-12">
          <mxGeometry relative="1" as="geometry" />
        </mxCell>
        <mxCell id="P91-GuEtjDm3UXRt7NYn-2" value="JSON" style="edgeLabel;html=1;align=center;verticalAlign=middle;resizable=0;points=[];" vertex="1" connectable="0" parent="P91-GuEtjDm3UXRt7NYn-1">
          <mxGeometry x="0.4864" relative="1" as="geometry">
            <mxPoint y="-17" as="offset" />
          </mxGeometry>
        </mxCell>
        <mxCell id="Fi4SvyCUNMQx0gdh2Xm_-3" style="edgeStyle=orthogonalEdgeStyle;rounded=0;orthogonalLoop=1;jettySize=auto;html=1;entryX=0.5;entryY=0;entryDx=0;entryDy=0;" edge="1" parent="1" source="Fi4SvyCUNMQx0gdh2Xm_-1" target="GKlQR40GHEnGQNF9QPMd-5">
          <mxGeometry relative="1" as="geometry" />
        </mxCell>
        <mxCell id="Fi4SvyCUNMQx0gdh2Xm_-1" value="Acoustic&lt;br&gt;Signal" style="image;aspect=fixed;html=1;points=[];align=center;fontSize=12;image=img/lib/azure2/general/Input_Output.svg;" vertex="1" parent="1">
          <mxGeometry x="646.73" y="80" width="46.55" height="40" as="geometry" />
        </mxCell>
      </root>
    </mxGraphModel>
  </diagram>
</mxfile>
